#!OML:ASF C:\Vicon Data\Big\jianyuan-13\jianyuan\Session 1\Capture.male.ASF
:FULLY-SPECIFIED
:DEGREES
195
root -7.315202 17.666703 -4.960479 3.293683 3.233260 2.015188
lowerback -9.279238 -1.289520 -2.704127 
upperback 0.555305 -1.400429 -0.270451 
thorax 5.851346 -0.767739 1.039863 
lowerneck -1.851904 -1.721319 2.341621 
upperneck -0.495543 -2.339352 -3.583086 
head 0.084433 -1.184193 -1.511489 
rclavicle 0.000000 0.000000 
rhumerus -54.724017 -16.837992 -73.575312 
rradius 27.875286 
rwrist 32.325613 
rhand -19.076242 -19.170553 
rfingers 0.000000 
rthumb 7.231568 -49.027004 
lclavicle 0.000000 0.000000 
lhumerus -18.062616 16.117235 91.219705 
lradius 36.651246 
lwrist -27.856478 
lhand -20.162555 5.952014 
lfingers 0.000000 
lthumb 6.182844 35.841793 
rfemur -45.857104 -3.094469 15.325269 
rtibia 50.832288 
rfoot -12.699922 -14.585507 
rtoes -30.302382 
lfemur -15.896691 -3.944562 -25.966988 
ltibia 26.684376 
lfoot -11.644776 0.719829 
ltoes -25.176730 
196
root -7.301529 17.687037 -4.889392 3.210735 3.350238 2.007245
lowerback -9.184524 -1.380475 -2.570895 
upperback 0.629665 -1.534954 -0.329447 
thorax 5.876053 -0.829803 0.884950 
lowerneck -1.975090 -1.644098 2.494643 
upperneck -0.426695 -2.239853 -3.661559 
head 0.127017 -1.136313 -1.564828 
rclavicle 0.000000 0.000000 
rhumerus -55.087458 -16.857926 -73.420953 
rradius 27.840548 
rwrist 32.262910 
rhand -18.904759 -19.136921 
rfingers 0.000000 
rthumb 7.397085 -48.987616 
lclavicle 0.000000 0.000000 
lhumerus -17.229492 14.853309 91.525552 
lradius 37.393039 
lwrist -27.132430 
lhand -20.101813 5.878564 
lfingers 0.000000 
lthumb 6.241533 35.766603 
rfemur -46.351763 -2.630503 14.856898 
rtibia 48.846106 
rfoot -12.729512 -14.491293 
rtoes -29.843169 
lfemur -15.179581 -4.037739 -26.021725 
ltibia 26.013309 
lfoot -11.567879 0.794521 
ltoes -25.136691 
197
root -7.292308 17.705570 -4.819462 3.168299 3.440684 1.892355
lowerback -9.110479 -1.470029 -2.599537 
upperback 0.684166 -1.662898 -0.157019 
thorax 5.902367 -0.897301 1.063747 
lowerneck -2.057439 -1.587887 2.348697 
upperneck -0.397556 -2.162208 -3.706342 
head 0.153383 -1.098423 -1.554359 
rclavicle 0.000000 0.000000 
rhumerus -55.415003 -16.826126 -72.936458 
rradius 27.766021 
rwrist 32.373890 
rhand -18.635141 -19.047550 
rfingers 0.000000 
rthumb 7.657353 -48.888932 
lclavicle 0.000000 0.000000 
lhumerus -16.410965 13.724601 92.077632 
lradius 38.215507 
lwrist -26.566184 
lhand -19.974747 5.951028 
lfingers 0.000000 
lthumb 6.364166 35.835347 
rfemur -46.887280 -2.069603 14.488174 
rtibia 46.815244 
rfoot -12.664624 -14.382864 
rtoes -29.729189 
lfemur -14.522697 -4.132262 -25.930466 
ltibia 25.332916 
lfoot -11.524616 0.887381 
ltoes -25.166361 
198
root -7.281388 17.722796 -4.748829 3.127324 3.506762 1.838441
lowerback -9.013076 -1.557551 -2.554552 
upperback 0.722677 -1.790697 -0.095232 
thorax 5.893436 -0.960154 1.086535 
lowerneck -2.095051 -1.500643 2.371258 
upperneck -0.404725 -2.046921 -3.815952 
head 0.159976 -1.041585 -1.593121 
rclavicle 0.000000 0.000000 
rhumerus -55.827638 -16.881258 -72.539459 
rradius 27.744299 
rwrist 32.400222 
rhand -18.563325 -18.913827 
rfingers 0.000000 
rthumb 7.726646 -48.752618 
lclavicle 0.000000 0.000000 
lhumerus -15.629412 12.613299 92.427369 
lradius 38.966597 
lwrist -26.133632 
lhand -19.936430 5.855617 
lfingers 0.000000 
lthumb 6.401137 35.738889 
rfemur -47.413754 -1.584082 14.066298 
rtibia 44.759024 
rfoot -12.479989 -14.294832 
rtoes -30.270347 
lfemur -13.867325 -4.209486 -25.915345 
ltibia 24.679706 
lfoot -11.487409 0.976411 
ltoes -25.222905 
199
root -7.270933 17.742803 -4.673645 3.109495 3.571398 1.721841
lowerback -8.964089 -1.627540 -2.519981 
upperback 0.754575 -1.896065 0.026500 
thorax 5.906666 -1.013434 1.180044 
lowerneck -2.270791 -1.455681 2.230634 
upperneck -0.257569 -1.982414 -3.756360 
head 0.238799 -1.011402 -1.552102 
rclavicle 0.000000 0.000000 
rhumerus -56.231680 -16.735894 -72.250177 
rradius 27.811734 
rwrist 32.013184 
rhand -18.456409 -19.060893 
rfingers 0.000000 
rthumb 7.829804 -48.895889 
lclavicle 0.000000 0.000000 
lhumerus -14.908774 11.321757 92.836779 
lradius 39.884466 
lwrist -25.131906 
lhand -20.097608 5.859757 
lfingers 0.000000 
lthumb 6.245610 35.747639 
rfemur -47.972219 -0.991116 13.602066 
rtibia 42.695084 
rfoot -12.385341 -14.288081 
rtoes -30.792870 
lfemur -13.224537 -4.357442 -25.828640 
ltibia 24.014863 
lfoot -11.481993 1.148493 
ltoes -25.244130 
200
root -7.260185 17.757057 -4.602192 3.090244 3.692510 1.686447
lowerback -8.852057 -1.717460 -2.530496 
upperback 0.773069 -2.022346 0.102058 
thorax 5.871117 -1.077164 1.249691 
lowerneck -2.371197 -1.390401 2.154352 
upperneck -0.165458 -1.892323 -3.760247 
head 0.287645 -0.967805 -1.541130 
rclavicle 0.000000 0.000000 
rhumerus -56.676558 -16.810572 -71.767485 
rradius 27.722443 
rwrist 31.985400 
rhand -18.295857 -18.981414 
rfingers 0.000000 
rthumb 7.984755 -48.810571 
lclavicle 0.000000 0.000000 
lhumerus -14.142956 10.152084 93.129943 
lradius 40.661530 
lwrist -24.695714 
lhand -20.047528 5.818634 
lfingers 0.000000 
lthumb 6.293965 35.705100 
rfemur -48.544187 -0.392317 12.992199 
rtibia 40.629954 
rfoot -12.272871 -14.490315 
rtoes -31.014414 
lfemur -12.600956 -4.457111 -25.833171 
ltibia 23.358356 
lfoot -11.398885 1.196794 
ltoes -24.869056 
